<svg width="639" height="639" viewBox="0 0 639 639" fill="none" xmlns="http://www.w3.org/2000/svg">
<g filter="url(#filter0_d_637:3)">
<path d="M435 0H204C93.5431 0 4 89.5431 4 200V431C4 541.457 93.5431 631 204 631H435C545.457 631 635 541.457 635 431V200C635 89.5431 545.457 0 435 0Z" fill="#FD8000"/>
<path d="M411 291.27C413.94 287.66 414.48 284.55 411.91 281.27C411.53 280.77 412.01 279.49 412.28 278.63C413.37 275.27 412.98 272.23 410.49 269.63C410.33 269.45 409.99 269.23 410.02 269.11C411.27 264.53 408.21 260.26 409.23 255.58C409.94 252.27 409.56 248.72 409.69 244.8C414.18 244.01 416.86 240.45 417.13 234.18C423.13 241.18 425.03 248.34 423.73 256.32C423.2 259.5 422.06 262.58 421.33 265.74C420.42 269.66 420.15 273.57 422.56 277.6C424.24 276.37 425.82 275.23 428.16 273.51C427.82 278.3 429.51 281.43 434.54 282.93L428.36 286.14C429.65 289.19 432.29 290.55 435.11 291.43C437.757 292.207 440.462 292.765 443.2 293.1C453.2 294.45 460.7 299.34 465.58 309.31C460.05 307.02 455.58 307.7 452.12 312.63C448.74 309.38 445.48 305.91 440.12 308.14C438.46 304.8 436.27 302.67 432.53 302.56C431.79 302.56 430.8 301.42 430.43 300.56C428.95 297.24 426.43 295.67 422.88 295.26C421.88 295.14 420.53 294.83 420.15 294.16C418.18 290.58 415.25 289.94 411 291.27Z" fill="black"/>
<path d="M176.27 377.05C172.53 376.38 170.1 377.22 168.75 380.38C168.55 380.84 167.45 381.01 166.75 381.15C165.424 381.313 164.175 381.858 163.153 382.72C162.132 383.581 161.384 384.721 161 386C160.94 386.18 160.92 386.51 160.82 386.54C157.06 387.46 155.23 391.34 151.49 392.47C148.85 393.27 146.49 394.94 143.63 396.41C141.29 393.52 137.69 393.02 133.12 395.31C135.76 388.31 140.12 384.07 146.27 381.84C148.75 380.95 151.4 380.55 153.94 379.84C157.09 378.93 159.94 377.58 161.94 374.26L156.81 371.89C160.35 370.24 161.91 367.79 160.99 363.61L165.72 366.74C167.38 364.62 167.31 362.19 166.82 359.84C166.332 357.645 165.663 355.494 164.82 353.41C161.82 345.74 162.34 338.47 167.51 331.04C168.07 335.89 170.32 338.82 175.2 339.32C174.2 343.02 173.05 346.72 176.75 349.62C175.02 352.13 174.38 354.53 175.75 357.24C175.825 357.639 175.812 358.05 175.712 358.444C175.612 358.838 175.427 359.205 175.17 359.52C174.349 360.567 173.839 361.824 173.7 363.146C173.56 364.469 173.796 365.805 174.38 367C174.68 367.73 175.01 368.84 174.68 369.38C172.92 372.18 173.63 374.52 176.27 377.05Z" fill="black"/>
<path d="M253.94 455.49C252.32 453.5 251.512 450.971 251.68 448.41C251.79 445.61 253.8 444.08 255.16 441.98C251.16 442.91 246.84 442.98 245.54 448.05C245.3 446.26 245.33 444.65 247.14 443.79C249.37 442.74 251.64 441.79 253.88 440.73C254.45 440.47 255.01 440.19 256.02 439.73C255.42 439.46 254.793 439.252 254.15 439.11C249.86 438.96 247.15 436 244.15 433.51C243.25 432.75 243.34 430.6 244.29 428.51C244.454 428.925 244.545 429.364 244.56 429.81C244.08 432.04 245.36 433.17 246.97 434.41C249.45 436.33 251.97 437.92 255.22 438.08C255.663 438.12 256.108 438.03 256.5 437.82C253.82 435.87 250.5 434.62 250.39 430.66C250.39 429.13 249.79 427.46 250.25 426.13C250.87 424.31 252.25 422.75 253.25 421.07L253.7 421.35C252.81 422.84 251.86 424.29 251.05 425.83C250.703 426.436 250.559 427.137 250.64 427.83C250.949 429.452 251.418 431.04 252.04 432.57C252.499 433.358 253.119 434.039 253.86 434.57C254.61 435.22 255.46 435.75 256.34 436.38C256.71 435.31 257.05 434.38 257.34 433.38C257.42 433.16 257.34 432.74 257.46 432.71C259.73 431.88 258.7 429.95 258.71 428.54C258.71 417.95 258.71 407.35 258.62 396.75C258.62 396.29 258.55 395.84 258.51 395.2C257.68 395.67 257.05 396.08 256.37 396.38C256.218 396.409 256.061 396.403 255.912 396.361C255.762 396.32 255.625 396.244 255.51 396.14C255.41 396.05 255.51 395.5 255.67 395.38C261.07 391.63 259.44 386.27 258.5 381.38C257.61 376.77 254.5 373.23 250.85 370.38C250.253 370.013 249.606 369.734 248.93 369.55C248.236 369.347 247.58 369.029 246.99 368.61C252.99 368.7 257.53 365.61 261.55 361.99C265.74 358.17 267.42 352.99 268.49 347.35C280.44 353.57 289.28 349.75 295.26 337.24C295.475 337.691 295.63 338.169 295.72 338.66C295.639 341.329 296.16 343.982 297.246 346.421C298.331 348.861 299.953 351.024 301.99 352.75C305.07 355.48 309.06 357.2 312.7 359.28C312.989 359.363 313.291 359.388 313.59 359.354C313.889 359.319 314.177 359.226 314.44 359.08C315.44 358.63 316.25 357.95 317.2 357.46C317.45 357.33 317.89 357.56 318.2 357.62C318.08 357.91 318.04 358.33 317.82 358.49C316.95 359.11 315.95 359.55 315.15 360.23C314.491 360.752 313.986 361.443 313.69 362.23C313.098 364.106 312.921 366.09 313.174 368.041C313.426 369.993 314.1 371.866 315.15 373.53C317.505 376.999 320.095 380.304 322.9 383.42C323.63 384.25 325.26 384.26 326.44 384.74C326.9 384.988 327.324 385.297 327.7 385.66C327.19 385.76 326.61 386.08 326.19 385.94C324.05 385.19 322.19 385.82 320.29 386.8C313.07 390.47 308.01 395.97 305.64 403.8C305.536 404.679 305.567 405.57 305.73 406.44C305.73 406.81 305.73 407.19 305.73 407.56C305.371 407.467 305.02 407.347 304.68 407.2C303.774 406.541 302.786 406.003 301.74 405.6C297.549 404.612 293.147 405.059 289.24 406.87C286.68 408.09 284.17 409.44 281.59 410.62C280.816 410.909 280.144 411.418 279.655 412.084C279.166 412.751 278.883 413.545 278.84 414.37C278.79 414.89 278.25 415.37 277.93 415.85C277.81 415.29 277.45 414.64 277.61 414.19C278.31 412.31 277.68 410.79 276.76 409.19C273.22 402.98 268.66 397.97 261.6 395.74C261.21 395.61 260.82 395.47 260.42 395.36C260.204 395.345 259.986 395.345 259.77 395.36C259.77 395.9 259.68 396.41 259.68 396.93C259.62 407.7 259.55 418.48 259.54 429.26C259.54 430.44 258.96 431.74 260.63 432.74C261.42 433.22 261.41 435.05 261.77 436.29C264.99 435.13 266.22 432.65 267.34 429.57C268.69 425.87 265.4 424.2 264.73 421.35C267.42 423.48 268.01 426.55 267.93 430.22C267.83 434.48 264.38 435.47 261.8 437.48C263.32 438.29 266.88 437.79 268.16 436.78C269.44 435.77 270.72 434.67 272.09 433.78C272.666 433.484 273.133 433.012 273.424 432.434C273.716 431.855 273.816 431.199 273.71 430.56C273.735 429.7 273.832 428.844 274 428C275.47 431.35 275.14 432.86 272.88 434.77C270.46 436.77 267.97 438.67 264.66 438.99C264.12 439.05 263.66 439.58 263.13 439.89C263.64 440.19 264.13 440.52 264.67 440.78C267.203 441.872 269.671 443.11 272.06 444.49C272.89 445.02 272.99 446.69 273.13 448.06C271.72 443.06 267.28 442.99 263.64 441.71L263.15 442.14C263.427 442.66 263.762 443.146 264.15 443.59C265.717 445.088 266.641 447.136 266.727 449.302C266.812 451.468 266.054 453.583 264.61 455.2C266.18 451.2 267.01 447.31 263.53 444.39C261.95 445.39 260.7 446.54 259.27 446.85C257.42 447.26 256.34 445.73 255.51 443.91C251.31 447.37 252.21 451.35 253.94 455.49ZM304.26 403.6C307.05 394.91 312.83 389.07 321.26 385.07C319.569 384.803 317.898 384.418 316.26 383.92C312.67 382.52 309.85 383.92 307.14 386.07L306.86 386.28C303.27 389.08 302.15 393.04 301.46 397.28C301 400.06 303.1 401.52 304.26 403.6ZM269.26 350.6C267.15 359.55 261.93 365.75 253.26 369.02C254.77 369.54 256.19 369.68 257.47 370.17C261.04 371.54 264.07 370.29 266.99 368.43C268.47 367.531 269.727 366.308 270.668 364.854C271.609 363.4 272.21 361.752 272.424 360.034C272.639 358.315 272.462 356.571 271.907 354.93C271.352 353.29 270.434 351.796 269.22 350.56L269.26 350.6ZM312.26 360.6C304.26 356.99 297.26 352.72 295.09 343.16C292.76 350.03 292.9 352.57 295.4 357.33C297.6 361.49 301.29 363.28 305.68 364.01C306.08 364.092 306.495 364.05 306.87 363.89C308.59 362.88 310.27 361.81 312.25 360.59L312.26 360.6ZM280 410.2C287.4 406.1 294.36 402.31 302.84 404.41C301.46 402.48 301.12 399.97 298.32 399.25C292.02 397.62 286.81 399.9 281.85 403.36C281.614 403.533 281.442 403.779 281.36 404.06C280.9 405.94 280.5 407.84 280 410.2ZM293.07 343.66C287.46 351.84 279.92 353.24 270.69 349.83C271.69 351.45 272.36 352.55 273.05 353.63C274.295 355.56 276.221 356.95 278.444 357.525C280.668 358.099 283.026 357.815 285.05 356.73C289.83 353.91 293.24 350.1 293.05 343.66H293.07ZM312.49 362C310.75 363 309.49 363.88 308.23 364.57C307.778 364.788 307.401 365.136 307.147 365.568C306.892 366.001 306.772 366.499 306.8 367C306.42 372.74 309.3 377.19 312.46 381.54C312.602 381.729 312.802 381.867 313.03 381.93C315.52 382.48 318.03 383.01 321.03 383.65C315.45 377.3 310.44 371.24 312.49 362ZM260.39 394.07C269.25 396.33 274.51 402.07 278.67 409.79C279.2 407.44 279.67 405.57 280.04 403.69C280.069 403.341 279.988 402.991 279.81 402.69C276.91 397.11 272.87 392.85 266.47 391.43C265.855 391.265 265.204 391.3 264.61 391.53C263.31 392.21 262.1 393.06 260.39 394.11V394.07ZM253.84 370.63C259.84 376.95 261.97 384.12 259.84 392.8C261.104 392.117 262.326 391.359 263.5 390.53C264.179 390.016 264.702 389.324 265.01 388.53C267.01 382.41 264.9 377.28 261.01 372.61C260.791 372.336 260.489 372.14 260.15 372.05C258.1 371.58 256 371.13 253.84 370.67V370.63ZM266.75 390.16C273.28 391.68 277.34 395.62 280.55 401.24C280.811 399.89 281.145 398.554 281.55 397.24C282.83 393.85 281.27 391.33 279.01 389.18C277.11 387.38 274.63 386.32 272.01 387.06C270.28 387.56 268.79 388.94 266.75 390.2V390.16ZM282 401.63C287.24 398.24 292.56 396.26 298.71 398.06C297.17 393.51 293.87 391.06 289.96 391.38C285.1 391.78 283.1 394.26 282 401.63ZM310.06 382.74C303.65 381.05 299.2 381.94 297.55 384.96C295.73 388.3 296.9 393.73 300.25 396.83C300.92 390.47 303.83 385.67 310.05 382.74H310.06ZM266.46 388.52C271.6 386.52 273.85 383.33 273.12 379.52C272.33 375.46 268.44 372.84 263 372.89C266.55 377.59 268.08 382.67 266.45 388.52H266.46ZM273.87 357.88C273.54 364.62 270.32 368.95 264.22 371.28C269.86 373.67 273.69 372.28 276.42 369.18C278.79 366.46 277.92 363 273.86 357.88H273.87ZM310.26 381.15C308.921 378.898 307.731 376.559 306.7 374.15C305.988 371.673 305.447 369.151 305.08 366.6C304.37 367.02 303.56 367.48 302.77 367.97C299.71 369.86 299.14 372.88 301.01 375.97C301.911 377.612 303.254 378.968 304.888 379.884C306.521 380.8 308.379 381.238 310.25 381.15H310.26ZM275.93 358.3C276.64 359.46 277.35 360.62 278.07 361.77C279.82 364.57 282.64 365.19 285.51 363.51C289.2 361.35 290.84 358.08 290.95 353.7C286.69 357.76 282.3 361.19 275.93 358.3ZM304.06 365.55C301.72 364.23 299 363.24 297.06 361.43C295.12 359.62 293.9 357.01 292.31 354.68C291.97 356.4 291.08 358.3 291.37 360C291.562 361.501 292.129 362.929 293.018 364.152C293.908 365.375 295.092 366.355 296.46 367C299.56 368.51 302 367.41 304.06 365.55ZM294.34 390.8C294.257 390.534 294.157 390.273 294.04 390.02C293.43 389.02 292.82 388.02 292.18 387.02C291.77 386.295 291.099 385.754 290.304 385.506C289.508 385.259 288.649 385.325 287.9 385.69C285.39 386.69 284.18 388.81 284.26 392.21C287.37 390.19 290.65 389.39 294.34 390.8ZM290.62 362.8C288.69 368.26 289.98 370.26 291.51 371.21C293.32 372.33 295.97 371.39 298.05 369.05C293.68 367.32 293.68 367.32 290.62 362.76V362.8ZM301.05 380.98C296.28 379.31 294.05 379.6 292.88 381.45C291.71 383.3 293 387 295.4 389C295.37 385.1 296.84 382.25 301.05 380.94V380.98ZM274.44 385.7C276.188 385.958 277.842 386.652 279.251 387.719C280.659 388.785 281.777 390.188 282.5 391.8C283.97 387.99 283.55 385.8 281.22 384.07C279.34 382.66 277.86 383 274.44 385.66V385.7ZM274.19 383.93C277.43 382.38 279.34 380.06 278.73 378.16C277.73 375.02 274.81 375.29 272.26 374.67C274.46 379.55 274.46 379.55 274.19 383.89V383.93ZM302.13 379.6C299.67 376.81 297.94 374.27 298.89 370.51C297.89 371.07 297.41 371.44 296.84 371.69C296.094 371.903 295.459 372.397 295.069 373.069C294.679 373.74 294.565 374.536 294.75 375.29C294.9 376.16 295.308 376.965 295.922 377.6C296.535 378.235 297.326 378.67 298.19 378.85C299.33 379.06 300.48 379.25 302.13 379.56V379.6ZM278.91 366.17C278.52 370.02 276.06 371.87 272.7 373.3C277.5 374.57 279.29 374.22 280.61 372.02C281.67 370.21 281.29 368.77 278.91 366.13V366.17ZM280.41 365.49C280.865 366.14 281.266 366.825 281.61 367.54C282.44 369.82 285.24 369.82 286.94 368.47C288.86 366.94 288.5 364.75 289 362.74C286.53 364.57 284.12 366.41 280.41 365.45V365.49ZM285.66 378.58L280.46 381.83L284.19 385.07C284.65 383 285.09 381 285.66 378.54V378.58ZM285.54 385.17L290.15 383.78L287 378.65C286.44 381.1 286 383.13 285.54 385.13V385.17ZM282.54 371.58L279.87 374.93L285.33 376.05L282.54 371.58ZM280.24 380.36L285.04 377.36L279.7 376.24C279.91 377.61 280.07 378.86 280.26 380.32L280.24 380.36ZM293.11 373.98L288.66 376.76L294.14 377.97C293.8 376.54 293.5 375.36 293.13 373.94L293.11 373.98ZM288.75 370.65L287.62 375.81L291.88 373.17L288.75 370.65ZM290.87 382.43C291.58 381.24 292.23 380.17 292.87 379.04L288.13 378.04L290.87 382.43ZM283.79 371L286.41 375.2L287.54 370.01L283.79 371Z" stroke="black" stroke-width="1.48" stroke-miterlimit="10"/>
<path d="M304.26 403.6C303.1 401.52 300.99 400.06 301.44 397.29C302.13 393.04 303.25 389.08 306.84 386.29L307.12 386.08C309.83 383.96 312.65 382.53 316.24 383.93C317.878 384.428 319.549 384.813 321.24 385.08C312.83 389.07 307.05 394.91 304.26 403.6Z" stroke="black" stroke-width="1.48" stroke-miterlimit="10"/>
<path d="M269.22 350.56C270.426 351.795 271.339 353.286 271.89 354.922C272.442 356.557 272.617 358.297 272.404 360.01C272.19 361.723 271.594 363.366 270.658 364.817C269.723 366.267 268.472 367.489 267 368.39C264.08 370.25 261 371.5 257.48 370.13C256.2 369.64 254.78 369.5 253.27 368.98C261.89 365.71 267.11 359.51 269.22 350.56Z" stroke="black" stroke-width="1.48" stroke-miterlimit="10"/>
<path d="M312.25 360.59C310.25 361.81 308.59 362.88 306.86 363.88C306.485 364.04 306.07 364.082 305.67 364C301.28 363.27 297.59 361.48 295.39 357.32C292.89 352.56 292.75 350.02 295.08 343.15C297.23 352.71 304.24 357 312.25 360.59Z" stroke="black" stroke-width="1.48" stroke-miterlimit="10"/>
<path d="M280 410.2C280.52 407.84 280.92 405.94 281.36 404.06C281.442 403.779 281.614 403.533 281.85 403.36C286.85 399.9 292.02 397.62 298.32 399.25C301.12 399.97 301.46 402.48 302.84 404.41C294.34 402.31 287.38 406.1 280 410.2Z" stroke="black" stroke-width="1.48" stroke-miterlimit="10"/>
<path d="M293.05 343.66C293.24 350.1 289.83 353.91 284.99 356.73C282.966 357.815 280.608 358.099 278.384 357.525C276.161 356.95 274.235 355.56 272.99 353.63C272.3 352.55 271.64 351.45 270.63 349.83C279.9 353.24 287.44 351.84 293.05 343.66Z" stroke="black" stroke-width="1.48" stroke-miterlimit="10"/>
<path d="M312.49 362C310.44 371.2 315.49 377.26 321.03 383.61C318.03 382.97 315.52 382.44 313.03 381.89C312.802 381.827 312.602 381.689 312.46 381.5C309.3 377.15 306.46 372.7 306.8 366.96C306.78 366.466 306.904 365.976 307.158 365.552C307.412 365.127 307.785 364.786 308.23 364.57C309.53 363.92 310.75 363.09 312.49 362Z" stroke="black" stroke-width="1.48" stroke-miterlimit="10"/>
<path d="M260.39 394.11C262.1 393.06 263.31 392.21 264.61 391.56C265.204 391.33 265.855 391.295 266.47 391.46C272.87 392.88 276.91 397.14 279.81 402.72C279.988 403.021 280.069 403.371 280.04 403.72C279.65 405.6 279.2 407.47 278.67 409.82C274.51 402.15 269.25 396.37 260.39 394.11Z" stroke="black" stroke-width="1.48" stroke-miterlimit="10"/>
<path d="M253.84 370.67C255.97 371.13 258.1 371.58 260.22 372.08C260.559 372.17 260.861 372.366 261.08 372.64C264.94 377.31 267.08 382.44 265.08 388.56C264.772 389.354 264.249 390.046 263.57 390.56C262.396 391.389 261.174 392.147 259.91 392.83C262 384.16 259.81 377 253.84 370.67Z" stroke="black" stroke-width="1.48" stroke-miterlimit="10"/>
<path d="M266.75 390.2C268.75 388.94 270.28 387.56 272.02 387.06C274.61 386.32 277.09 387.38 279.02 389.18C281.28 391.33 282.84 393.85 281.56 397.24C281.155 398.554 280.821 399.89 280.56 401.24C277.34 395.66 273.28 391.72 266.75 390.2Z" stroke="black" stroke-width="1.48" stroke-miterlimit="10"/>
<path d="M282 401.63C283.11 394.26 285.11 391.78 290 391.38C293.91 391.05 297.21 393.51 298.75 398.06C292.55 396.26 287.23 398.24 282 401.63Z" stroke="black" stroke-width="1.48" stroke-miterlimit="10"/>
<path d="M310.05 382.74C303.83 385.67 300.92 390.47 300.24 396.83C296.89 393.73 295.72 388.3 297.54 384.96C299.19 381.94 303.64 381.05 310.05 382.74Z" stroke="black" stroke-width="1.48" stroke-miterlimit="10"/>
<path d="M266.45 388.52C268.08 382.67 266.55 377.59 262.99 372.92C268.43 372.87 272.32 375.49 273.11 379.55C273.84 383.33 271.59 386.47 266.45 388.52Z" stroke="black" stroke-width="1.48" stroke-miterlimit="10"/>
<path d="M273.86 357.88C277.92 362.96 278.79 366.46 276.41 369.18C273.68 372.3 269.85 373.67 264.21 371.28C270.31 369 273.53 364.62 273.86 357.88Z" stroke="black" stroke-width="1.48" stroke-miterlimit="10"/>
<path d="M310.25 381.15C308.381 381.243 306.523 380.81 304.888 379.9C303.252 378.989 301.905 377.638 301 376C299.13 372.87 299.7 369.85 302.76 368C303.55 367.51 304.36 367.05 305.07 366.63C305.437 369.181 305.978 371.703 306.69 374.18C307.723 376.579 308.912 378.907 310.25 381.15Z" stroke="black" stroke-width="1.48" stroke-miterlimit="10"/>
<path d="M275.93 358.3C282.3 361.19 286.69 357.76 290.93 353.7C290.82 358.08 289.18 361.35 285.49 363.51C282.62 365.19 279.8 364.57 278.05 361.77C277.35 360.62 276.64 359.46 275.93 358.3Z" stroke="black" stroke-width="1.48" stroke-miterlimit="10"/>
<path d="M304.06 365.55C301.98 367.41 299.56 368.55 296.44 367.04C295.072 366.395 293.888 365.415 292.998 364.192C292.109 362.969 291.542 361.541 291.35 360.04C291.06 358.34 291.95 356.44 292.29 354.72C293.88 357.05 295.08 359.67 297.04 361.47C299 363.27 301.72 364.23 304.06 365.55Z" stroke="black" stroke-width="1.48" stroke-miterlimit="10"/>
<path d="M294.34 390.8C290.65 389.39 287.34 390.19 284.26 392.2C284.18 388.8 285.39 386.68 287.9 385.68C288.649 385.315 289.508 385.249 290.304 385.496C291.099 385.744 291.77 386.285 292.18 387.01C292.82 388.01 293.43 389.01 294.04 390.01C294.157 390.267 294.257 390.53 294.34 390.8V390.8Z" stroke="black" stroke-width="1.48" stroke-miterlimit="10"/>
<path d="M290.62 362.76C293.68 367.32 293.68 367.32 298.05 369.01C295.97 371.35 293.32 372.29 291.51 371.17C290 370.22 288.69 368.22 290.62 362.76Z" stroke="black" stroke-width="1.48" stroke-miterlimit="10"/>
<path d="M301.05 380.94C296.84 382.25 295.37 385.1 295.4 388.94C293.03 386.94 291.74 383.17 292.88 381.37C294.02 379.57 296.28 379.27 301.05 380.94Z" stroke="black" stroke-width="1.48" stroke-miterlimit="10"/>
<path d="M274.44 385.66C277.86 382.98 279.34 382.66 281.22 384.03C283.55 385.73 283.97 387.95 282.5 391.76C281.777 390.148 280.659 388.745 279.251 387.679C277.842 386.612 276.188 385.918 274.44 385.66V385.66Z" stroke="black" stroke-width="1.48" stroke-miterlimit="10"/>
<path d="M274.19 383.89C274.46 379.55 274.46 379.55 272.26 374.63C274.81 375.25 277.73 374.98 278.73 378.12C279.34 380 277.43 382.34 274.19 383.89Z" stroke="black" stroke-width="1.48" stroke-miterlimit="10"/>
<path d="M302.13 379.56C300.48 379.25 299.33 379.06 298.19 378.81C297.326 378.63 296.535 378.195 295.922 377.56C295.308 376.925 294.9 376.12 294.75 375.25C294.565 374.496 294.679 373.7 295.069 373.029C295.459 372.357 296.094 371.863 296.84 371.65C297.41 371.4 297.93 371.03 298.89 370.47C297.94 374.23 299.67 376.77 302.13 379.56Z" stroke="black" stroke-width="1.48" stroke-miterlimit="10"/>
<path d="M278.91 366.13C281.29 368.77 281.67 370.21 280.61 371.98C279.29 374.18 277.5 374.53 272.7 373.26C276.06 371.83 278.52 370 278.91 366.13Z" stroke="black" stroke-width="1.48" stroke-miterlimit="10"/>
<path d="M280.41 365.45C284.12 366.45 286.53 364.57 289 362.7C288.5 364.7 288.86 366.9 286.94 368.43C285.24 369.78 282.44 369.78 281.61 367.5C281.266 366.785 280.865 366.1 280.41 365.45V365.45Z" stroke="black" stroke-width="1.48" stroke-miterlimit="10"/>
<path d="M285.66 378.54C285.09 381.04 284.66 383.02 284.19 385.03L280.46 381.79L285.66 378.54Z" stroke="black" stroke-width="1.48" stroke-miterlimit="10"/>
<path d="M285.54 385.13C285.99 383.13 286.44 381.13 286.98 378.65L290.15 383.74L285.54 385.13Z" stroke="black" stroke-width="1.48" stroke-miterlimit="10"/>
<path d="M282.56 371.54L285.35 376.01L279.89 374.89L282.56 371.54Z" stroke="black" stroke-width="1.48" stroke-miterlimit="10"/>
<path d="M280.26 380.32C280.07 378.86 279.91 377.61 279.72 376.22L285.06 377.34L280.26 380.32Z" stroke="black" stroke-width="1.48" stroke-miterlimit="10"/>
<path d="M293.13 373.94C293.5 375.36 293.8 376.54 294.13 377.94L288.65 376.73L293.13 373.94Z" stroke="black" stroke-width="1.48" stroke-miterlimit="10"/>
<path d="M288.77 370.61L291.9 373.13L287.64 375.77L288.77 370.61Z" stroke="black" stroke-width="1.48" stroke-miterlimit="10"/>
<path d="M290.89 382.39L288.18 378L292.92 379C292.25 380.13 291.6 381.2 290.89 382.39Z" stroke="black" stroke-width="1.48" stroke-miterlimit="10"/>
<path d="M283.79 371L287.54 370L286.41 375.19L283.79 371Z" stroke="black" stroke-width="1.48" stroke-miterlimit="10"/>
<path d="M259.26 432.38L257.72 433.28L256.53 436.11L256.15 438.11L254.92 439.87L253.77 441.19L254.19 442.19L255.13 443.19L255.68 444.27L256.98 446.19L258.5 446.91L261.5 446.21L262.5 445.08L263.74 444.17V442.6L263.02 441.79L263.74 441.36L263.5 440.08L263.74 439.15L264.43 438.64C264.377 438.457 264.272 438.292 264.129 438.167C263.985 438.041 263.809 437.959 263.62 437.93L261.4 437.71L261.92 436.35L262.25 435.24L261.53 433.45L260.78 432.8L259.26 432.38Z" fill="black"/>
<path d="M543.21 496.75L321.21 351.41C320.87 331.31 320.537 311.207 320.21 291.1L543.21 496.75Z" fill="white" stroke="black" stroke-width="12" stroke-linejoin="round"/>
<path d="M98.22 496.75L321.22 351.41L321.16 291.1L98.22 496.75Z" fill="white" stroke="black" stroke-width="12" stroke-linejoin="round"/>
<path d="M320.76 438.12V259.75L265.76 310.19C284.12 352.83 302.453 395.473 320.76 438.12Z" fill="white" stroke="black" stroke-width="12" stroke-linejoin="round"/>
<path d="M320.76 438.12V259.75L375.51 310.18L320.76 438.12Z" fill="white" stroke="black" stroke-width="12" stroke-linejoin="round"/>
<path d="M320.76 129.75L543.76 496.75L320.76 291.1V129.75Z" fill="white" stroke="black" stroke-width="12" stroke-linejoin="round"/>
<path d="M320.76 129.75L97.76 496.75L320.76 291.1V129.75Z" fill="white" stroke="black" stroke-width="12" stroke-linejoin="round"/>
<path d="M555.19 461.74C549.19 465.81 542.69 468.59 535.29 468.74C531.18 468.83 527.52 467.85 524.73 464.56C524.219 464.081 523.597 463.738 522.92 463.56C521.253 463.009 519.73 462.096 518.459 460.885C517.188 459.675 516.201 458.198 515.57 456.56C515.25 455.807 514.681 455.186 513.96 454.8C509.17 452.63 506.67 448.85 505.79 443.8C505.586 442.716 505.1 441.705 504.38 440.87C501.501 437.827 499.895 433.799 499.89 429.61C499.959 428.831 499.832 428.047 499.52 427.33C495.52 420.33 497.41 413.98 502.29 408.46C505.86 404.46 509.69 400.37 514.77 398.22C523.41 394.58 532.39 394.63 540.3 399.53C544.74 402.28 549.42 405.73 551.47 411.23C551.551 411.511 551.697 411.769 551.896 411.984C552.094 412.198 552.34 412.364 552.614 412.467C552.888 412.57 553.182 412.607 553.473 412.577C553.764 412.546 554.044 412.448 554.29 412.29C557 411 559.78 409.74 560.51 406.29C560.6 405.85 561.42 405.14 561.51 405.21C562.858 405.758 564.103 406.533 565.19 407.5C565.461 407.915 565.624 408.391 565.666 408.885C565.708 409.379 565.627 409.875 565.43 410.33C563.96 412.76 562.12 414.96 560.56 417.33C560.126 418.047 559.95 418.89 560.06 419.72C560.46 422.37 561.85 424.65 562.92 427.07C564.84 431.44 566.53 436.21 565.26 441.16C564.192 445.793 562.768 450.336 561 454.75C559.84 457.45 557.49 459.64 555.67 462.06L555.19 461.74ZM512.05 412.84C507.27 419.63 506.4 427.2 507.46 434.16C509.52 434.36 510.21 435.16 511 438.83C511.15 439.56 510.4 440.48 510.07 441.31H509.4L517.05 451.48L517.34 450.72C518.22 450.62 519.34 450.14 519.95 450.49C523.84 452.66 524.24 453.36 523.51 455.55C528.79 459.04 541.51 459.75 545.3 456.77L536.64 452.64C535.46 453.56 535.08 456.02 532.64 454.09C529.14 451.25 529.02 451.4 530.51 448.47L524.33 442.69C522.89 443.25 521.73 445.29 520.05 442.83C517.64 439.31 517.47 439.42 519.84 436.71L515.66 429.07L513.51 429.62C512.99 428.27 512.51 427.01 512.01 425.76C511.51 424.51 511.01 423.35 512.8 422.62C513.12 422.49 513.35 421.62 513.29 421.15C513 418.52 512.52 415.86 512.05 412.84V412.84ZM530.38 409.41C528.586 409.345 526.799 409.664 525.138 410.345C523.478 411.026 521.981 412.054 520.75 413.36C520.57 413.69 520.475 414.059 520.475 414.435C520.475 414.811 520.57 415.18 520.75 415.51C523.148 419.24 526.332 422.4 530.08 424.77C530.76 425.18 531.48 425.49 532.69 426.11C530.295 420.891 529.492 415.083 530.38 409.41V409.41ZM552.99 439.41C547.11 439 542.19 436.76 537.26 433.19C538.375 438.626 541.088 443.605 545.05 447.49C545.319 447.664 545.627 447.768 545.947 447.793C546.267 447.817 546.587 447.761 546.88 447.63C549.908 445.805 552.104 442.87 553 439.45L552.99 439.41Z" fill="black"/>
<path d="M233 265.91C233.06 265.55 233 265.07 233.21 264.85C234.16 263.85 233.74 262.85 233.27 261.85C231.27 257.57 228.64 253.85 223.73 252.66C221.423 252.129 219.085 251.738 216.73 251.49C216.07 251.41 215.37 251.87 214.67 251.97C214.325 251.951 213.986 251.87 213.67 251.73C213.86 251.47 213.99 251.12 214.24 250.97C219.52 247.85 221.53 239.88 218.34 234.48C217.74 233.48 216.97 232.55 216.27 231.6C215.93 231.022 215.453 230.538 214.881 230.189C214.309 229.84 213.659 229.638 212.99 229.6C212.66 229.6 212.34 229.15 211.99 228.9C212.33 228.77 212.74 228.44 212.99 228.53C214.61 229.08 215.75 228.21 216.94 227.38C223.58 222.75 225.83 216.2 225.24 208.38C225.164 206.63 224.977 204.886 224.68 203.16C224.306 201.75 223.845 200.364 223.3 199.01C223.24 198.68 223.223 198.344 223.25 198.01C223.56 198.1 224 198.08 224.16 198.29C226.68 201.4 230.42 201.35 233.84 201.96C237.015 202.614 240.32 201.993 243.04 200.23C244.943 198.921 246.763 197.495 248.49 195.96C249.42 195.17 250.33 194.29 250.05 192.82C250.05 192.61 250.4 192.31 250.59 192.06C250.77 192.27 251.12 192.48 251.12 192.69C251.12 195.6 253.49 196.91 255.23 198.53C260.66 203.53 267.05 202.98 273.55 201.36C273.78 201.3 273.97 201.07 274.19 200.97C274.41 200.87 274.93 200.71 275.3 200.58C275.277 201.006 275.182 201.425 275.02 201.82C273.76 203.76 272.41 205.65 271.16 207.59C265.827 215.89 260.493 224.197 255.16 232.51C251.01 238.96 246.91 245.44 242.76 251.89C239.933 256.31 237.083 260.717 234.21 265.11C233.99 265.414 233.753 265.704 233.5 265.98L233 265.91ZM227.32 201.76L227.22 202.18C229 204.44 230.83 206.65 232.53 208.96C233.483 210.236 234.766 211.228 236.24 211.83C241.08 213.93 244.48 213.65 247.3 210.51C248.67 208.98 250.3 207.16 250.59 205.29C251.01 202.42 250.37 199.39 250.15 195.97C243.81 203.47 236.2 205.1 227.36 201.76H227.32ZM216.5 229.07C219.28 229.52 221.57 229.85 223.83 230.29C224.277 230.39 224.742 230.373 225.18 230.24C225.618 230.106 226.014 229.862 226.33 229.53C230.21 226.05 231.99 221.61 232.68 216.53C233.13 213.19 232.96 210.28 230.27 207.84C229.135 206.644 228.102 205.357 227.18 203.99C226.85 203.58 226.5 203.18 226.18 202.78C227.49 213.11 226.73 222.56 216.54 229.07H216.5ZM219.38 250.07C222.499 251.233 225.55 252.568 228.52 254.07C231.52 255.81 233.12 259.07 234.79 262.07C236.73 259.07 238.62 256.21 240.41 253.3C240.483 253.047 240.503 252.781 240.468 252.519C240.434 252.258 240.346 252.006 240.21 251.78C238.54 248.58 235.62 247.26 232.27 246.54C227.27 245.54 223.46 248.64 219.42 250.07H219.38ZM273.23 202.9C268.87 203.65 265.04 204.21 261.16 203.12C257.28 202.03 254.3 199.66 251.4 196.52C251.55 199.71 251.66 202.47 251.81 205.24C251.838 205.541 251.969 205.824 252.18 206.04C256.99 211.04 261.41 212.2 268.18 210.09C268.514 209.969 268.802 209.745 269 209.45C270.36 207.41 271.68 205.35 273.27 202.9H273.23ZM217.13 230.31L216.83 230.6C222.39 236.36 222.16 242.6 218.27 249.1C220.83 248.19 223.18 247.1 225.62 246.23C226.393 245.962 227.098 245.529 227.687 244.961C228.276 244.392 228.734 243.703 229.03 242.94C231.08 238.55 229.68 233.74 225.25 231.86C222.81 230.81 219.89 230.79 217.17 230.31H217.13ZM226.67 230.68L233.67 231.83C234.593 231.965 235.534 231.895 236.426 231.623C237.318 231.352 238.139 230.887 238.83 230.261C239.521 229.635 240.065 228.863 240.423 228.002C240.781 227.141 240.944 226.212 240.9 225.28C240.68 222.54 240.08 219.92 238.11 217.77C236.75 216.29 235.59 214.64 234.11 212.71C233.86 219.8 232.32 225.87 226.71 230.68H226.67ZM267.67 211.49C260.39 212.31 259.56 212.91 251.85 207.39C251.99 209.6 252.11 211.62 252.24 213.64C252.42 216.55 255.64 219.64 258.58 219.64C260.44 219.64 262.39 219.32 263.58 217.73C265.06 215.83 266.23 213.77 267.71 211.49H267.67ZM236.22 213L236.07 213.35C237.17 214.75 238.34 216.1 239.35 217.57C240.772 219.488 242.884 220.779 245.24 221.17C245.786 221.318 246.362 221.311 246.904 221.15C247.446 220.99 247.933 220.681 248.31 220.26C251.1 217.57 252.19 211.99 250.57 208.05C247.28 214 242.54 215.82 236.22 213ZM229.53 244.53C231.86 243.62 233.82 242.89 235.75 242.09C236.466 241.804 237.096 241.337 237.578 240.734C238.06 240.132 238.377 239.415 238.499 238.653C238.621 237.892 238.543 237.111 238.274 236.389C238.004 235.666 237.551 235.026 236.96 234.53C235.45 233.24 230.71 232.09 227.77 232.39C231.82 235.8 232.12 239.81 229.53 244.49V244.53ZM241.71 251.87C242.63 250.45 243.44 249.33 244.09 248.12C244.358 247.587 244.412 246.971 244.24 246.4C243.51 244.32 238.74 242.01 236.66 242.78C234.77 243.48 232.96 244.42 231.11 245.25C233.277 245.407 235.374 246.088 237.22 247.234C239.067 248.381 240.607 249.958 241.71 251.83V251.87ZM252.42 217.6C252.52 219.21 252.63 220.83 252.72 222.44C252.87 225.2 254.91 226.44 257.52 225.44C259.87 224.57 260.52 222.44 261.7 220.44C257.92 221.57 255 220.39 252.42 217.56V217.6ZM242.72 221.6C243.85 223.16 244.72 224.35 245.56 225.53C245.793 225.884 246.054 226.218 246.34 226.53C247.92 228.07 249.82 227.88 250.88 225.95C251.317 225.098 251.556 224.158 251.58 223.2C251.64 221.53 251.46 219.85 251.39 218.2C249.29 221.24 247 223.37 242.72 221.58V221.6ZM237.6 232.39C239.1 232.7 240.1 232.93 241.11 233.1C241.632 233.223 242.176 233.231 242.701 233.123C243.227 233.016 243.723 232.795 244.155 232.476C244.587 232.157 244.945 231.748 245.203 231.278C245.461 230.807 245.614 230.286 245.65 229.75C245.94 227.61 244.24 224.55 241.65 222.75C242.88 226.92 241.73 230.08 237.6 232.37V232.39ZM238.79 240.66C240.37 240.02 241.57 239.46 242.79 239.05C243.314 238.892 243.762 238.55 244.053 238.087C244.344 237.623 244.456 237.07 244.37 236.53C244.281 236.099 244.094 235.695 243.824 235.348C243.553 235.001 243.206 234.721 242.81 234.53C241.216 234.094 239.591 233.78 237.95 233.59C239.5 235.77 240.11 237.88 238.79 240.64V240.66ZM239.34 241.74C241.93 242.62 244.27 243.32 245.27 246.04C245.85 245.15 246.27 244.41 246.77 243.75C247.43 242.88 247.77 241.91 246.77 241.2C245.933 240.472 244.878 240.043 243.77 239.98C242.38 240.13 241.06 241 239.34 241.72V241.74ZM257.48 227.13L252.93 226.27C253.02 228.62 253.11 231 253.21 233.73L257.48 227.13ZM244.84 233.73L251.42 234.63L247.3 229.23L244.84 233.73ZM248.18 228.83L251.89 233.47L252.25 233.32C252.11 231.32 251.98 229.32 251.85 227.38L248.18 228.83ZM246.1 238.88L248.48 241.18L251.17 237.02L250.96 236.72L246.1 238.88ZM250.34 235.98L250.27 235.54L245.1 234.72C245.32 235.87 245.49 236.79 245.69 237.88L250.34 235.98Z" stroke="black" stroke-width="1.29" stroke-miterlimit="10"/>
<path d="M227.36 201.76C236.2 205.1 243.81 203.47 250.19 195.97C250.41 199.39 251.05 202.42 250.63 205.29C250.35 207.16 248.71 208.98 247.34 210.51C244.52 213.65 241.12 213.93 236.28 211.83C234.806 211.228 233.523 210.236 232.57 208.96C230.87 206.65 229.04 204.44 227.26 202.18L227.36 201.76Z" stroke="black" stroke-width="1.29" stroke-miterlimit="10"/>
<path d="M216.54 229.07C226.73 222.56 227.54 213.07 226.2 202.77C226.54 203.17 226.89 203.57 227.2 203.98C228.122 205.347 229.155 206.634 230.29 207.83C232.98 210.27 233.15 213.18 232.7 216.52C232.01 221.61 230.23 226.05 226.35 229.52C226.035 229.852 225.638 230.096 225.2 230.23C224.762 230.363 224.297 230.38 223.85 230.28C221.61 229.85 219.32 229.52 216.54 229.07Z" stroke="black" stroke-width="1.29" stroke-miterlimit="10"/>
<path d="M219.42 250.07C223.42 248.64 227.27 245.54 232.31 246.62C235.66 247.34 238.58 248.62 240.25 251.86C240.386 252.086 240.474 252.338 240.508 252.599C240.543 252.861 240.523 253.126 240.45 253.38C238.66 256.29 236.77 259.15 234.83 262.15C233.16 259.06 231.6 255.84 228.56 254.15C225.592 252.621 222.54 251.259 219.42 250.07V250.07Z" stroke="black" stroke-width="1.29" stroke-miterlimit="10"/>
<path d="M273.27 202.9C271.68 205.35 270.36 207.41 269 209.45C268.802 209.745 268.515 209.969 268.18 210.09C261.45 212.2 257.03 211.02 252.18 206.04C251.969 205.824 251.838 205.541 251.81 205.24C251.66 202.47 251.55 199.71 251.4 196.52C254.3 199.66 257.29 202.04 261.16 203.12C265.03 204.2 268.91 203.65 273.27 202.9Z" stroke="black" stroke-width="1.29" stroke-miterlimit="10"/>
<path d="M217.17 230.31C219.89 230.79 222.81 230.81 225.29 231.86C229.72 233.74 231.12 238.55 229.07 242.94C228.774 243.703 228.316 244.392 227.727 244.961C227.138 245.529 226.433 245.962 225.66 246.23C223.22 247.06 220.87 248.23 218.31 249.1C222.2 242.55 222.43 236.36 216.87 230.6L217.17 230.31Z" stroke="black" stroke-width="1.29" stroke-miterlimit="10"/>
<path d="M226.71 230.68C232.32 225.87 233.86 219.8 234.11 212.68C235.63 214.61 236.79 216.26 238.11 217.74C240.11 219.89 240.68 222.51 240.9 225.25C240.944 226.181 240.781 227.111 240.423 227.972C240.065 228.833 239.521 229.604 238.83 230.231C238.139 230.857 237.318 231.322 236.426 231.593C235.534 231.865 234.593 231.935 233.67 231.8L226.71 230.68Z" stroke="black" stroke-width="1.29" stroke-miterlimit="10"/>
<path d="M267.71 211.49C266.23 213.77 265.06 215.83 263.64 217.69C262.43 219.28 260.48 219.56 258.64 219.6C255.7 219.65 252.48 216.6 252.3 213.6C252.17 211.6 252.05 209.6 251.91 207.35C259.6 212.91 260.43 212.31 267.71 211.49Z" stroke="black" stroke-width="1.29" stroke-miterlimit="10"/>
<path d="M236.22 213C242.54 215.86 247.28 214.06 250.57 208C252.19 211.94 251.1 217.52 248.31 220.21C247.933 220.631 247.446 220.94 246.904 221.1C246.362 221.261 245.786 221.268 245.24 221.12C242.884 220.729 240.772 219.438 239.35 217.52C238.35 216.05 237.17 214.7 236.07 213.3L236.22 213Z" stroke="black" stroke-width="1.29" stroke-miterlimit="10"/>
<path d="M229.53 244.49C232.12 239.81 231.82 235.8 227.77 232.35C230.71 232.05 235.45 233.2 236.96 234.49C237.551 234.985 238.004 235.626 238.274 236.348C238.543 237.071 238.621 237.851 238.499 238.613C238.377 239.375 238.06 240.092 237.578 240.694C237.096 241.297 236.466 241.764 235.75 242.05C233.82 242.85 231.86 243.58 229.53 244.49Z" stroke="black" stroke-width="1.29" stroke-miterlimit="10"/>
<path d="M241.71 251.83C240.612 249.95 239.074 248.365 237.227 247.212C235.38 246.059 233.281 245.372 231.11 245.21C232.96 244.38 234.77 243.44 236.66 242.74C238.74 241.97 243.51 244.28 244.24 246.36C244.412 246.931 244.358 247.547 244.09 248.08C243.44 249.29 242.63 250.41 241.71 251.83Z" stroke="black" stroke-width="1.29" stroke-miterlimit="10"/>
<path d="M252.42 217.56C254.98 220.39 257.92 221.56 261.7 220.37C260.52 222.37 259.87 224.55 257.52 225.37C254.91 226.37 252.87 225.11 252.72 222.37C252.63 220.79 252.52 219.17 252.42 217.56Z" stroke="black" stroke-width="1.29" stroke-miterlimit="10"/>
<path d="M242.72 221.58C247.02 223.37 249.29 221.24 251.39 218.11C251.46 219.79 251.64 221.47 251.58 223.11C251.556 224.068 251.317 225.008 250.88 225.86C249.82 227.79 247.88 227.98 246.34 226.44C246.054 226.128 245.793 225.793 245.56 225.44C244.7 224.33 243.85 223.14 242.72 221.58Z" stroke="black" stroke-width="1.29" stroke-miterlimit="10"/>
<path d="M237.6 232.37C241.73 230.08 242.88 226.92 241.68 222.77C244.24 224.53 245.94 227.59 245.68 229.77C245.643 230.306 245.491 230.827 245.233 231.298C244.975 231.768 244.617 232.177 244.185 232.496C243.753 232.815 243.257 233.035 242.731 233.143C242.206 233.251 241.662 233.243 241.14 233.12C240.1 232.91 239.1 232.68 237.6 232.37Z" stroke="black" stroke-width="1.29" stroke-miterlimit="10"/>
<path d="M238.79 240.64C240.11 237.88 239.5 235.77 237.99 233.55C239.631 233.74 241.256 234.054 242.85 234.49C243.246 234.681 243.593 234.961 243.864 235.308C244.134 235.655 244.321 236.059 244.41 236.49C244.496 237.03 244.384 237.583 244.093 238.047C243.802 238.51 243.354 238.852 242.83 239.01C241.57 239.44 240.37 240 238.79 240.64Z" stroke="black" stroke-width="1.29" stroke-miterlimit="10"/>
<path d="M239.34 241.72C241.06 241 242.34 240.13 243.79 239.96C244.898 240.023 245.953 240.452 246.79 241.18C247.79 241.89 247.4 242.86 246.79 243.73C246.28 244.39 245.87 245.13 245.29 246.02C244.27 243.3 241.93 242.6 239.34 241.72Z" stroke="black" stroke-width="1.29" stroke-miterlimit="10"/>
<path d="M257.48 227.11L253.21 233.71C253.11 230.98 253.02 228.6 252.93 226.25L257.48 227.11Z" stroke="black" stroke-width="1.29" stroke-miterlimit="10"/>
<path d="M244.84 233.71L247.3 229.21L251.42 234.61L244.84 233.71Z" stroke="black" stroke-width="1.29" stroke-miterlimit="10"/>
<path d="M248.18 228.81L251.85 227.36C251.98 229.27 252.11 231.29 252.25 233.3L251.89 233.45L248.18 228.81Z" stroke="black" stroke-width="1.29" stroke-miterlimit="10"/>
<path d="M246.1 238.86L251 236.7L251.21 237L248.52 241.16L246.1 238.86Z" stroke="black" stroke-width="1.29" stroke-miterlimit="10"/>
<path d="M250.34 236L245.69 237.9C245.49 236.81 245.32 235.9 245.1 234.74L250.27 235.56L250.34 236Z" stroke="black" stroke-width="1.29" stroke-miterlimit="10"/>
<path d="M191.15 337.34C192.057 327.52 192.963 317.693 193.87 307.86L196.6 314.6L202.6 300.2C203.8 292.94 204.993 285.677 206.18 278.41L209.31 291.1L215.82 280.8L216.92 284.54L226.76 272.63V277.73L191.15 337.34Z" fill="black"/>
<path d="M173.51 444.34L157.81 475C157.75 472.17 157.68 469.34 157.62 466.5L144.72 479.38L131.36 501.3L133.25 486.2L121.48 494.4L121.84 489.87L105.62 498.32L107.81 492.81L173.51 444.34Z" fill="black"/>
<path d="M458.12 440L423.92 436.38L431.77 433.14L415.12 425.74L389.86 421.17L404.63 417.5L392.73 409.5L397.09 408.21L383.37 396.12L389.29 396.17L458.12 440Z" fill="black"/>
<path d="M331.76 152.5L364.28 173L354.82 172.35L367.9 187.91L390.99 204.91L374.39 201.28L382.39 215.12L377.39 214.26L385.25 233L379.33 230L331.76 152.5Z" fill="black"/>
<path d="M261.13 227.36C260.89 216.887 260.643 206.42 260.39 195.96L265.67 202.32C267.897 196.84 270.13 191.353 272.37 185.86L274.2 162.28L281.08 174.75L289.31 162.42L291.6 166.06L304.6 151.25L305.45 156.57L261.13 227.36Z" fill="black"/>
</g>
<defs>
<filter id="filter0_d_637:3" x="0" y="0" width="639" height="639" filterUnits="userSpaceOnUse" color-interpolation-filters="sRGB">
<feFlood flood-opacity="0" result="BackgroundImageFix"/>
<feColorMatrix in="SourceAlpha" type="matrix" values="0 0 0 0 0 0 0 0 0 0 0 0 0 0 0 0 0 0 127 0" result="hardAlpha"/>
<feOffset dy="4"/>
<feGaussianBlur stdDeviation="2"/>
<feComposite in2="hardAlpha" operator="out"/>
<feColorMatrix type="matrix" values="0 0 0 0 0 0 0 0 0 0 0 0 0 0 0 0 0 0 0.25 0"/>
<feBlend mode="normal" in2="BackgroundImageFix" result="effect1_dropShadow_637:3"/>
<feBlend mode="normal" in="SourceGraphic" in2="effect1_dropShadow_637:3" result="shape"/>
</filter>
</defs>
</svg>
